<?xml version="1.0" standalone="no"?><!DOCTYPE svg PUBLIC "-//W3C//DTD SVG 1.1//EN" "http://www.w3.org/Graphics/SVG/1.1/DTD/svg11.dtd"><svg t="1585936221176" class="icon" viewBox="0 0 1024 1024" version="1.1" xmlns="http://www.w3.org/2000/svg" p-id="10471" xmlns:xlink="http://www.w3.org/1999/xlink" width="200" height="200"><defs><style type="text/css"></style></defs><path d="M585.92 445.62V317.6c0-74.77 60.61-135.38 135.38-135.38 74.76 0 135.37 60.61 135.37 135.38 0 25.63 20.78 46.41 46.41 46.41 25.63 0 46.41-20.78 46.41-46.41-5.02-121.86-105.27-218.05-227.23-218.05s-222.2 96.2-227.23 218.05v128.02" p-id="10472" fill="#7cba59"></path><path d="M667.57 894.44H203.43c-59.02 0-106.92-47.73-107.14-106.75V526.61c0-59.02 47.73-106.93 106.75-107.14h464.14c59.02 0.21 106.75 48.12 106.75 107.14v261.07c-0.2 58.72-47.64 106.33-106.36 106.76z m-157.8-298.98c0.11-35.66-25-66.42-59.96-73.43-34.96-7.01-70 11.68-83.65 44.61-13.65 32.94-2.1 70.93 27.57 90.7v94.76c0.21 22.71 18.68 41 41.39 41a41.386 41.386 0 0 0 42.16-41v-94.76a73.876 73.876 0 0 0 32.49-61.88z m0 0" p-id="10473" fill="#7cba59"></path></svg>