<?xml version="1.0" standalone="no"?><!DOCTYPE svg PUBLIC "-//W3C//DTD SVG 1.1//EN" "http://www.w3.org/Graphics/SVG/1.1/DTD/svg11.dtd"><svg t="1585991713560" class="icon" viewBox="0 0 1024 1024" version="1.1" xmlns="http://www.w3.org/2000/svg" p-id="9977" xmlns:xlink="http://www.w3.org/1999/xlink" width="200" height="200"><defs><style type="text/css"></style></defs><path d="M963.072 433.152H327.68c-33.792 0-60.928 27.136-60.928 60.928v445.952c0 33.792 27.136 60.928 60.928 60.928h634.88c33.792 0 60.928-27.136 60.928-60.928V494.08c0.512-33.792-26.624-60.928-60.416-60.928z m-283.136 295.424v97.28c0 4.608-3.584 8.192-8.192 8.192h-52.736c-4.608 0-8.192-3.584-8.192-8.192v-97.28c-24.576-12.8-41.984-37.888-41.984-67.584 0-41.984 34.304-76.288 76.288-76.288s76.288 34.304 76.288 76.288c0 29.696-16.896 55.296-41.472 67.584z m0 0M95.232 273.92c0-83.968 68.608-152.576 152.576-152.576s152.576 68.608 152.576 152.576v158.72h94.72V269.824C495.104 133.632 384 22.528 247.296 22.528 111.104 22.528 0 133.632 0 269.824v162.816h95.232v-158.72z m0 0" p-id="9978" fill="#707070"></path></svg>