<?xml version="1.0" standalone="no"?><!DOCTYPE svg PUBLIC "-//W3C//DTD SVG 1.1//EN" "http://www.w3.org/Graphics/SVG/1.1/DTD/svg11.dtd"><svg t="1585990220805" class="icon" viewBox="0 0 1353 1024" version="1.1" xmlns="http://www.w3.org/2000/svg" p-id="6175" xmlns:xlink="http://www.w3.org/1999/xlink" width="264.2578125" height="200"><defs><style type="text/css"></style></defs><path d="M255.915732 548.419259h255.915461a36.588336 36.588336 0 0 0 0-73.109042H255.915732a36.588336 36.588336 0 1 0 0 73.109042z m0-182.603527h365.545208a36.588336 36.588336 0 1 0 0-73.109042h-365.207053a36.588336 36.588336 0 1 0 0 73.109042z m840.855426 328.618718H255.915732a36.588336 36.588336 0 1 0 0 73.109041h840.855426a36.588336 36.588336 0 0 0 0-73.109041zM1206.400905 0H146.218354A146.353345 146.353345 0 0 0 0.000271 146.623869v731.090417a146.353345 146.353345 0 0 0 146.218083 146.285714h1060.182551A146.285714 146.285714 0 0 0 1352.618988 877.376131V146.623869A146.285714 146.285714 0 0 0 1206.400905 0.338155z m36.520705 877.376131a36.520705 36.520705 0 0 1-36.520705 36.588336H146.218354a36.588336 36.588336 0 0 1-36.520705-36.588336V146.623869a36.588336 36.588336 0 0 1 36.520705-36.588336h1060.182551a36.520705 36.520705 0 0 1 36.520705 36.588336v731.090417z m-224.602338-462.189816a109.697378 109.697378 0 1 0-135.667657 0 182.603527 182.603527 0 0 0-114.972591 169.753649h365.612839a182.603527 182.603527 0 0 0-114.972591-169.753649z m0 0" p-id="6176" fill="#707070"></path></svg>