<?xml version="1.0" standalone="no"?><!DOCTYPE svg PUBLIC "-//W3C//DTD SVG 1.1//EN" "http://www.w3.org/Graphics/SVG/1.1/DTD/svg11.dtd"><svg t="1585990547536" class="icon" viewBox="0 0 1024 1024" version="1.1" xmlns="http://www.w3.org/2000/svg" p-id="10569" xmlns:xlink="http://www.w3.org/1999/xlink" width="200" height="200"><defs><style type="text/css"></style></defs><path d="M853 185.5L512 64 171 185.5s-56.2 377.7 0 485.9c47.8 92 341 288.6 341 288.6s293.2-196.6 341-288.6c56.2-108.2 0-485.9 0-485.9z m-58.2 456.9c-5.5 10.5-33.8 52.8-169.9 157-42.9 32.9-84.5 62.5-112.9 82.4-28.4-19.9-69.9-49.5-112.9-82.4-136.1-104.2-164.5-146.5-169.9-157-6.3-12.2-26-66.2-14.2-249.6 4.1-63.9 10.9-123.6 15.5-160.4L512 132.1l281.4 100.3c4.6 36.8 11.4 96.5 15.5 160.4 11.9 183.4-7.8 237.4-14.1 249.6z" fill="#707070" p-id="10570"></path><path d="M543 487c54.3-13.6 94.7-61.9 94.7-119.3 0-67.9-56.4-123.1-125.7-123.1-69.3 0-125.7 55.2-125.7 123.1 0 57.4 40.3 105.8 94.7 119.3v275.6h62V642.7h124v-64H543V487z m-91.3-119.4c0-32.6 27.1-59.1 60.3-59.1s60.3 26.5 60.3 59.1-27.1 59.1-60.3 59.1-60.3-26.5-60.3-59.1z" fill="#707070" p-id="10571"></path></svg>