<?xml version="1.0" standalone="no"?><!DOCTYPE svg PUBLIC "-//W3C//DTD SVG 1.1//EN" "http://www.w3.org/Graphics/SVG/1.1/DTD/svg11.dtd"><svg t="1585989882413" class="icon" viewBox="0 0 1024 1024" version="1.1" xmlns="http://www.w3.org/2000/svg" p-id="4939" xmlns:xlink="http://www.w3.org/1999/xlink" width="200" height="200"><defs><style type="text/css"></style></defs><path d="M701.248 0A323.2 323.2 0 0 0 393.6 420.8L6.528 807.872A22.4 22.4 0 0 0 0 823.68v178.048c0 12.288 9.984 22.272 22.272 22.272h155.84c5.888 0 11.52-2.368 15.744-6.528l44.8-44.8a22.336 22.336 0 0 0 6.528-15.744v-70.848h70.848a22.272 22.272 0 0 0 22.272-22.272v-62.4h62.4c5.888 0 11.52-2.368 15.744-6.528l170.24-170.24A323.2 323.2 0 0 0 1024 322.752 323.2 323.2 0 0 0 701.248 0z m-225.28 496.96l-379.072 379.072a11.136 11.136 0 1 1-15.68-15.744L460.288 481.28a11.136 11.136 0 0 1 15.744 15.744z m385.472-35.328l-15.744 15.744L546.56 178.304l15.744-15.744a210.112 210.112 0 0 1 149.504-61.888c56.512 0 109.632 21.952 149.568 61.888a211.712 211.712 0 0 1 0 299.072z" fill="#515151" p-id="4940"></path></svg>