<?xml version="1.0" standalone="no"?><!DOCTYPE svg PUBLIC "-//W3C//DTD SVG 1.1//EN" "http://www.w3.org/Graphics/SVG/1.1/DTD/svg11.dtd"><svg t="1585936360151" class="icon" viewBox="0 0 1024 1024" version="1.1" xmlns="http://www.w3.org/2000/svg" p-id="15932" xmlns:xlink="http://www.w3.org/1999/xlink" width="200" height="200"><defs><style type="text/css"></style></defs><path d="M446.680407 513.704726h136.078739v510.295274h-136.078739z" p-id="15933" fill="#2c2c2c"></path><path d="M532.410013 666.793308h115.666928v136.07874H532.410013zM532.410013 843.69567h149.686613v136.07874H532.410013zM511.998202 585.146065A290.528109 290.528109 0 0 1 219.428912 292.576775 290.528109 290.528109 0 0 1 511.998202 0.007484a290.528109 290.528109 0 0 1 292.56929 292.569291 290.528109 290.528109 0 0 1-292.56929 292.56929z m0-449.059841A153.768976 153.768976 0 0 0 355.507651 292.576775a153.768976 153.768976 0 0 0 156.490551 156.49055 153.768976 153.768976 0 0 0 156.49055-156.49055A153.768976 153.768976 0 0 0 511.998202 136.086224z" p-id="15934" fill="#2c2c2c"></path></svg>