<?xml version="1.0" standalone="no"?><!DOCTYPE svg PUBLIC "-//W3C//DTD SVG 1.1//EN" "http://www.w3.org/Graphics/SVG/1.1/DTD/svg11.dtd"><svg t="1585990560252" class="icon" viewBox="0 0 1024 1024" version="1.1" xmlns="http://www.w3.org/2000/svg" p-id="11010" width="200" height="200" xmlns:xlink="http://www.w3.org/1999/xlink"><defs><style type="text/css"></style></defs><path d="M853 185.5L512 64 171 185.5s-56.2 377.7 0 485.9c47.8 92 341 288.6 341 288.6s293.2-196.6 341-288.6c56.2-108.2 0-485.9 0-485.9zM667 642.7H543v119.9h-62V487c-54.3-13.6-94.7-61.9-94.7-119.3 0-67.9 56.4-123.1 125.7-123.1 69.3 0 125.7 55.2 125.7 123.1 0 57.4-40.3 105.8-94.7 119.3v91.7h124v64z" fill="#7cba59" p-id="11011"></path><path d="M572.3 367.6c0-32.6-27.1-59.1-60.3-59.1s-60.3 26.5-60.3 59.1 27.1 59.1 60.3 59.1 60.3-26.5 60.3-59.1z" fill="#7cba59" p-id="11012"></path></svg>